<?xml version="1.0" encoding="UTF-8" standalone="no"?>
<!-- Uploaded to: SVG Repo, www.svgrepo.com, Generator: SVG Repo Mixer Tools -->

<svg
   width="100"
   height="100"
   viewBox="0 0 9.5 9.5"
   version="1.1"
   enable-background="new 0 0 76.00 76.00"
   xml:space="preserve"
   id="svg1"
   xmlns="http://www.w3.org/2000/svg"
   xmlns:svg="http://www.w3.org/2000/svg"><defs
   id="defs1" />
	
<path
   id="text1"
   style="font-weight:bold;font-size:480px;font-family:Ubuntu;-inkscape-font-specification:'Ubuntu Bold';white-space:pre;fill:#ffffff;stroke-width:0.0204345"
   d="M 4.0811308,1.045 C 3.7999513,1.045 3.4795564,1.0581181 3.1199089,1.084272 2.7668,1.1104261 2.4234914,1.1561751 2.09,1.2215658 V 7.9208224 H 3.6201564 V 5.4392631 c 0,0 0.5045406,0.023018 0.755239,0 0.00411,-3.773e-4 0.00832,-7.402e-4 0.01245,-0.00112 l 1.5885061,2.4796027 c 0,0 1.0251202,-0.078821 1.6559554,0.5520126 L 7.6717435,8.4303143 6.6351698,7.3937406 c -0.081196,0.034399 -0.1983464,0.038213 -0.264532,-0.027973 -0.087108,-0.087097 -0.087108,-0.2283155 0,-0.3154181 0.087097,-0.087107 0.2283154,-0.087107 0.3154192,0 0.066187,0.066187 0.082101,0.1636215 0.047691,0.2448148 L 7.770282,8.3317376 7.79,8.3120156 C 7.1591643,7.6811807 7.2380279,6.6560605 7.2380279,6.6560605 c 0,0 -0.8633491,-0.9720618 -1.304378,-1.4985063 0.010178,-0.00422 0.00627,-0.00812 0.016439,-0.012573 C 6.3081306,4.9893835 6.6902206,4.7428272 6.9060091,4.4485697 7.128337,4.1477738 7.2395077,3.7587175 7.2395077,3.2813672 7.2395077,2.5162976 6.9681401,1.9539273 6.4253987,1.59428 5.8826537,1.2281114 5.1012227,1.045 4.0811308,1.045 Z m 0.088279,1.3045776 c 0.4904294,0 0.8598908,0.071903 1.1083748,0.2157598 0.2550224,0.1373203 0.3825486,0.3727378 0.3825486,0.7062292 0,0.3465694 -0.1242465,0.5917841 -0.3727306,0.7356432 C 5.0391191,4.1510688 4.6271493,4.2230095 4.0517124,4.2230095 H 3.6201532 V 2.3789927 c 0.078472,-0.00658 0.1602062,-0.013097 0.2452138,-0.019637 0.09155,-0.00658 0.1928801,-0.00977 0.3040435,-0.00977 z" /></svg>
